<?xml version="1.0" encoding="utf-8"?>
<!-- Generator: Adobe Illustrator 17.0.0, SVG Export Plug-In . SVG Version: 6.00 Build 0)  -->
<!DOCTYPE svg PUBLIC "-//W3C//DTD SVG 1.1//EN" "http://www.w3.org/Graphics/SVG/1.1/DTD/svg11.dtd">
<svg version="1.1" id="Layer_1" xmlns="http://www.w3.org/2000/svg" xmlns:xlink="http://www.w3.org/1999/xlink" x="0px" y="0px"
	 width="1200px" height="1200px" viewBox="0 0 1200 1200" enable-background="new 0 0 1200 1200" xml:space="preserve">
<g>
	<path fill="#86CDDA" d="M939.748,491.921c0,244.055-197.857,441.907-441.912,441.907c-244.074,0-441.921-197.852-441.921-441.907
		C55.914,247.847,253.762,50,497.836,50C741.89,50,939.748,247.847,939.748,491.921z"/>
	<g>
		<defs>
			<path id="SVGID_1_" d="M939.748,491.921c0,244.055-197.857,441.907-441.912,441.907c-244.074,0-441.921-197.852-441.921-441.907
				C55.914,247.847,253.762,50,497.836,50C741.89,50,939.748,247.847,939.748,491.921z"/>
		</defs>
		<clipPath id="SVGID_2_">
			<use xlink:href="#SVGID_1_"  overflow="visible"/>
		</clipPath>
		<linearGradient id="SVGID_3_" gradientUnits="userSpaceOnUse" x1="955.6113" y1="929.2532" x2="543.2922" y2="587.617">
			<stop  offset="0" style="stop-color:#FFFFFF"/>
			<stop  offset="0.0718" style="stop-color:#DFDFDF"/>
			<stop  offset="0.2156" style="stop-color:#A5A5A5"/>
			<stop  offset="0.3593" style="stop-color:#727272"/>
			<stop  offset="0.4998" style="stop-color:#494949"/>
			<stop  offset="0.6362" style="stop-color:#292929"/>
			<stop  offset="0.7674" style="stop-color:#121212"/>
			<stop  offset="0.8912" style="stop-color:#050505"/>
			<stop  offset="1" style="stop-color:#000000"/>
		</linearGradient>
		<polygon opacity="0.6" clip-path="url(#SVGID_2_)" fill="url(#SVGID_3_)" points="304.358,794.823 659.53,1150 1001.739,1038.912 
			1144.086,702.25 861.212,428.387 607.854,175.039 645.01,350.917 524.111,212.624 512.122,403.187 380.159,388.755 
			372.948,419.385 363.946,426.592 365.746,468.03 394.571,390.555 259.757,601.974 297.273,650.005 362.233,683.288 		"/>
	</g>
	<g>
		<path fill="#F9B20B" d="M603.844,571.158l2.199-396.211c0,0,127.662,121.059,129.862,394.017
			C735.905,568.963,727.098,593.166,603.844,571.158z"/>
		<path fill="#253147" d="M696.287,762.655c0,25.531-20.709,46.226-46.226,46.226l0,0c-25.526,0-46.216-20.695-46.216-46.226
			V571.158c0-25.531,20.69-46.226,46.216-46.226l0,0c25.518,0,46.226,20.695,46.226,46.226V762.655z"/>
		<polygon fill="#F9B20B" points="515.859,601.974 259.757,601.974 259.757,225.577 523.08,210.293 		"/>
		<path fill="#253147" d="M413.033,742.846c0,36.46-29.565,66.035-66.04,66.035l0,0c-36.475,0-66.031-29.575-66.031-66.035V571.158
			c0-36.475,29.555-66.035,66.031-66.035l0,0c36.475,0,66.04,29.56,66.04,66.035V742.846z"/>
		<path fill="#FFFFFF" d="M365.698,597.57c0,11.547-9.372,20.913-20.904,20.913c-11.562,0-20.913-9.366-20.913-20.913
			s9.351-20.913,20.913-20.913C356.325,576.657,365.698,586.023,365.698,597.57z"/>
		<path fill="#FFFFFF" d="M365.698,663.605c0,11.551-9.372,20.913-20.904,20.913c-11.562,0-20.913-9.362-20.913-20.913
			c0-11.547,9.351-20.914,20.913-20.914C356.325,642.691,365.698,652.059,365.698,663.605z"/>
		<path fill="#FFFFFF" d="M335.295,258.451c-20.709,0-37.565,16.845-37.565,37.564c0,20.715,16.856,37.57,37.565,37.57
			c20.719,0,37.565-16.855,37.565-37.57C372.86,275.296,356.014,258.451,335.295,258.451z"/>
		<path fill="#FFFFFF" d="M670.974,590.967c0,11.552-9.372,20.913-20.914,20.913c-11.552,0-20.913-9.361-20.913-20.913
			c0-11.542,9.361-20.909,20.913-20.909C661.602,570.058,670.974,579.425,670.974,590.967z"/>
		<g opacity="0.3">
			<path fill="#1D1D1B" d="M281.215,747.893c2.589,34.096,31.015,60.989,65.777,60.989c34.237,0,62.361-26.042,65.69-59.394
				C355.265,782.454,300.786,758.763,281.215,747.893z"/>
		</g>
		<g opacity="0.3">
			<path fill="#1D1D1B" d="M603.844,759.104v3.552c0,25.531,20.69,46.226,46.216,46.226c25.518,0,46.226-20.695,46.226-46.226
				v-2.559C655.705,787.228,617.566,767.984,603.844,759.104z"/>
		</g>
		<g opacity="0.3">
			<path fill="#FFFFFF" d="M344.638,220.647l-84.881,4.93v68.906C266.774,278.226,289.546,236.977,344.638,220.647z"/>
		</g>
		<g opacity="0.5">
			<path fill="#FFFFFF" d="M398.114,529.374c-12.107-14.802-30.509-24.252-51.121-24.252c-25.838,0-48.153,14.88-58.994,36.509
				C305.438,528.206,355.79,495.736,398.114,529.374z"/>
		</g>
		<path opacity="0.3" fill="#1D1D1B" d="M413.179,602.066v-23.109c0,0,12.563,22.987,36.971,22.987L413.179,602.066z"/>
		<g>
			<path opacity="0.5" fill="#FFFFFF" d="M682.954,538.708c-8.379-8.496-20.018-13.776-32.894-13.776
				c-16.943,0-31.696,9.138-39.745,22.714C621.459,541.189,656.669,523.365,682.954,538.708z"/>
		</g>
		<path opacity="0.3" fill="#1D1D1B" d="M696.316,569.411v10.88c0,0,14.5-0.589,18.802-1.762
			C715.117,578.529,699.557,576.958,696.316,569.411z"/>
		<g opacity="0.5">
			<path fill="#FFFFFF" d="M625.848,197.904c-11.902-15.449-19.804-22.957-19.804-22.957l-0.36,64.425
				C608.856,225.864,615.406,204.108,625.848,197.904z"/>
		</g>
	</g>
</g>
</svg>
