<?xml version="1.0" encoding="utf-8"?>
<!-- Generator: Adobe Illustrator 17.0.0, SVG Export Plug-In . SVG Version: 6.00 Build 0)  -->
<!DOCTYPE svg PUBLIC "-//W3C//DTD SVG 1.1//EN" "http://www.w3.org/Graphics/SVG/1.1/DTD/svg11.dtd">
<svg version="1.1" id="Layer_1" xmlns="http://www.w3.org/2000/svg" xmlns:xlink="http://www.w3.org/1999/xlink" x="0px" y="0px"
	 width="1200px" height="1200px" viewBox="0 0 1200 1200" enable-background="new 0 0 1200 1200" xml:space="preserve">
<g>
	<g>
		<g>
			<path fill="#86CDDA" d="M901.967,515.356c0,235.251-190.724,425.983-425.983,425.983C240.705,941.34,50,750.607,50,515.356
				C50,280.078,240.705,89.364,475.983,89.364C711.243,89.364,901.967,280.078,901.967,515.356z"/>
			<g>
				<defs>
					<path id="SVGID_1_" d="M901.967,515.356c0,235.251-190.724,425.983-425.983,425.983C240.705,941.34,50,750.607,50,515.356
						C50,280.078,240.705,89.364,475.983,89.364C711.243,89.364,901.967,280.078,901.967,515.356z"/>
				</defs>
				<clipPath id="SVGID_2_">
					<use xlink:href="#SVGID_1_"  overflow="visible"/>
				</clipPath>
				<linearGradient id="SVGID_3_" gradientUnits="userSpaceOnUse" x1="920.6417" y1="927.5461" x2="490.999" y2="571.5561">
					<stop  offset="0" style="stop-color:#FFFFFF"/>
					<stop  offset="0.0718" style="stop-color:#DFDFDF"/>
					<stop  offset="0.2156" style="stop-color:#A5A5A5"/>
					<stop  offset="0.3593" style="stop-color:#727272"/>
					<stop  offset="0.4998" style="stop-color:#494949"/>
					<stop  offset="0.6362" style="stop-color:#292929"/>
					<stop  offset="0.7674" style="stop-color:#121212"/>
					<stop  offset="0.8912" style="stop-color:#050505"/>
					<stop  offset="1" style="stop-color:#000000"/>
				</linearGradient>
				<polygon opacity="0.5" clip-path="url(#SVGID_2_)" fill="url(#SVGID_3_)" points="238.036,772.652 615.326,1110.636 
					961.714,1050.254 1150,748.784 719.896,325.148 583.743,419.179 583.044,478.899 541.516,415.739 518.102,415.739 
					397.265,298.697 433.489,469.744 465.897,496.752 473.099,520.153 419.462,497.504 333.864,416.474 257.295,438.742 
					433.775,598.016 339.041,618.072 				"/>
			</g>
		</g>
		<g>
			<path fill="#F9B20B" d="M723.855,325.998c-21.086-23.652-57.346-25.725-80.993-4.639c-23.648,21.081-25.726,57.345-4.622,80.989
				c21.067,23.643,57.328,25.726,80.993,4.635C742.863,385.902,744.942,349.642,723.855,325.998z"/>
			<path fill="#F9B20B" d="M679.91,369.886c-37.872-42.472-83.824-70.903-99.195-57.942l-0.036-0.017l-340.296,303.44
				l140.83,157.916l338.414-301.779c0.43-0.305,0.86-0.614,1.254-0.963C736.002,457.051,717.979,412.573,679.91,369.886z"/>
			<path fill="#253147" d="M339.865,673.107c-38.069-42.7-84.344-71.23-99.482-57.74c-15.121,13.49,6.611,63.907,44.68,106.604
				c38.069,42.7,80.635,65.287,95.755,51.796C395.975,760.273,377.935,715.798,339.865,673.107z"/>
			<path fill="#F9B20B" d="M314.515,691.013c-21.086-23.644-57.346-25.721-80.994-4.64c-23.648,21.09-25.726,57.351-4.639,80.989
				c21.086,23.648,57.345,25.726,80.993,4.645C333.524,750.921,335.601,714.656,314.515,691.013z"/>
			<path fill="#2E3D59" d="M739.997,694.618L433.883,411.467c-16.589-15.34-42.494-14.332-57.83,2.262
				c-15.353,16.603-14.35,42.485,2.239,57.839L684.424,754.71c16.589,15.349,42.477,14.337,57.83-2.257
				C757.59,735.858,756.605,709.963,739.997,694.618z"/>
			<path fill="#2E3D59" d="M263.01,443.826c62.308,57.624,142.872,71.849,179.92,31.777
				c37.066-40.067,16.625-119.278-45.665-176.906c-62.326-57.633-142.873-71.853-179.957-31.786
				C180.26,306.982,200.701,386.193,263.01,443.826z"/>
			<path opacity="0.5" fill="#000014" d="M233.02,255.36c0,0-9.226,176.328,219.369,199.497c0,0-61.789,100.387-189.379-11.032
				C263.01,443.826,142.012,324.861,233.02,255.36z"/>
			<path opacity="0.3" fill="#1D1D1B" d="M314.515,691.013c-6.127-6.87-13.562-11.86-21.57-15.048
				c7.524,17.073,25.744,72.681-35.651,108.744c17.915,4.627,37.729,0.533,52.58-12.701
				C333.524,750.921,335.601,714.656,314.515,691.013z"/>
			<path opacity="0.3" fill="#1D1D1B" d="M635.696,329.223c0,0,64.727,54.188,75.763,83.292c0,0,23.074-13.549,26.585-41.649
				c0,0,3.655-26.017-14.189-44.868c0,0-8.831-11.264-21.157-15.058C702.698,310.941,696.768,359.37,635.696,329.223z"/>
			<g opacity="0.3">
				<path fill="#1D1D1B" d="M713.877,417.5c-4.031,12.657,10.874,43.547-46.597,100.687l52.347-46.682
					c0.43-0.305,0.86-0.614,1.254-0.963C730.251,462.175,726.866,441.882,713.877,417.5z"/>
			</g>
			<g opacity="0.5">
				<path fill="#FFFFFF" d="M627.993,323.983c-20.764-13.638-38.75-19.237-47.278-12.039l-0.036-0.017l-52.061,46.436
					C549.937,346.023,574.749,314.842,627.993,323.983z"/>
			</g>
			<path opacity="0.5" fill="#FFFFFF" d="M241.995,614.234l75.028-67.45c0,0-41.491,45.1-8.384,94.989
				C308.64,641.773,261.146,603.458,241.995,614.234z"/>
			<path opacity="0.3" fill="#1D1D1B" d="M376.232,724.733c0,0,18.811,32.44,4.586,49.033l82.714-74.32
				C463.533,699.446,404.538,756.644,376.232,724.733z"/>
			<g opacity="0.5">
				<path fill="#000014" d="M635.374,709.335l49.051,45.374c16.589,15.349,42.477,14.337,57.83-2.257
					c13.311-14.39,14.296-35.763,3.511-51.196C722.977,753.128,657.534,721.845,635.374,709.335z"/>
			</g>
		</g>
	</g>
	<path opacity="0.3" fill="#1D1D1B" d="M368.216,499.224l37.827,10.807c0,0,102.671,84.662,95.469,156.721l45.039-37.828
		L404.243,497.423C404.243,497.423,373.626,499.224,368.216,499.224z"/>
</g>
</svg>
