<?xml version="1.0" encoding="utf-8"?>
<!-- Generator: Adobe Illustrator 17.0.0, SVG Export Plug-In . SVG Version: 6.00 Build 0)  -->
<!DOCTYPE svg PUBLIC "-//W3C//DTD SVG 1.1//EN" "http://www.w3.org/Graphics/SVG/1.1/DTD/svg11.dtd">
<svg version="1.1" id="Layer_1" xmlns="http://www.w3.org/2000/svg" xmlns:xlink="http://www.w3.org/1999/xlink" x="0px" y="0px"
	 width="1200px" height="1200px" viewBox="0 0 1200 1200" enable-background="new 0 0 1200 1200" xml:space="preserve">
<g>
	<path fill="#25526B" d="M904.315,519.995c0,235.912-191.245,427.166-427.157,427.166S50,755.907,50,519.995
		C50,284.082,241.245,92.838,477.157,92.838S904.315,284.082,904.315,519.995z"/>
	<g>
		<defs>
			<path id="SVGID_1_" d="M904.315,519.995c0,235.912-191.245,427.166-427.157,427.166S50,755.907,50,519.995
				C50,284.082,241.245,92.838,477.157,92.838S904.315,284.082,904.315,519.995z"/>
		</defs>
		<clipPath id="SVGID_2_">
			<use xlink:href="#SVGID_1_"  overflow="visible"/>
		</clipPath>
		<linearGradient id="SVGID_3_" gradientUnits="userSpaceOnUse" x1="939.2692" y1="970.1081" x2="509.1701" y2="613.7399">
			<stop  offset="0" style="stop-color:#FFFFFF"/>
			<stop  offset="0.0718" style="stop-color:#DFDFDF"/>
			<stop  offset="0.2156" style="stop-color:#A5A5A5"/>
			<stop  offset="0.3593" style="stop-color:#727272"/>
			<stop  offset="0.4998" style="stop-color:#494949"/>
			<stop  offset="0.6362" style="stop-color:#292929"/>
			<stop  offset="0.7674" style="stop-color:#121212"/>
			<stop  offset="0.8912" style="stop-color:#050505"/>
			<stop  offset="1" style="stop-color:#000000"/>
		</linearGradient>
		<polygon opacity="0.5" clip-path="url(#SVGID_2_)" fill="url(#SVGID_3_)" points="184.734,763.847 528.04,1107.162 
			987.855,1083.93 1150,752.758 906.194,506.907 661.298,262.002 575.072,404.468 565.244,394.622 523.896,313.925 486.574,464.858 
			374.329,361.168 376.291,489.098 547.073,605.285 493.642,638.684 334.374,757.961 232.902,714.197 191.078,727.656 		"/>
	</g>
	<g>
		<path fill="#F9B20B" d="M606.336,226.741c-17.695-5.281-34.49-7.962-49.947-7.962c-68.925,0-99.382,53.619-105.91,82.316
			l-15.2,75.938c-25.634-69.398-65.863-78.134-84.41-78.134c-5.052,0-8.334,0.665-8.957,0.811
			c-21.931,4.597-37.425,15.65-46.061,32.89c-19.711,39.303,6.235,96.136,7.298,98.442c20.508,45.139,26.257,269.558,26.743,352.222
			l0.064,12.918l325.026-1.911l-1.1-13.872c-4.95-61.018,39.56-317.594,41.615-329.398
			C739.419,268.919,607.692,227.14,606.336,226.741z"/>
		<path opacity="0.3" fill="#1D1D1B" d="M435.278,377.033c0,0,8.471,26.088,11.002,49.783c0,0,8.507-61.041-1.66-95.733
			C444.62,331.083,437.68,367.204,435.278,377.033z"/>
		<g opacity="0.5">
			<path fill="#FFFFFF" d="M382.14,306.975c-12.395-6.523-23.672-8.077-31.272-8.077c-5.052,0-8.334,0.665-8.957,0.811
				c-21.931,4.597-37.425,15.65-46.061,32.89c-19.509,38.886,5.648,94.871,7.216,98.272
				C306.632,390.047,321.384,306.022,382.14,306.975z"/>
		</g>
		<g opacity="0.5">
			<path fill="#FFFFFF" d="M607.527,227.14c-0.66-0.229-1.118-0.38-1.191-0.399c-17.695-5.281-34.49-7.962-49.947-7.962
				c-68.925,0-99.382,53.619-105.91,82.316l-1.265,6.243C505.322,241.74,538.657,228.749,607.527,227.14z"/>
		</g>
		<g opacity="0.3">
			<path fill="#1D1D1B" d="M655.916,726.069c-139.519,85.272-285.914,22.549-326.831,1.692c0.468,21.733,0.724,40.871,0.806,55.503
				l0.064,12.918l325.026-1.911l-1.1-13.872C652.909,768.582,653.826,749.37,655.916,726.069z"/>
		</g>
		<path fill="#86CDDA" d="M257.372,785.652L257.372,785.652c-34.316,0-59.455-7.774-74.747-23.076
			c-13.77-13.798-14.138-28.651-14.138-30.295c0.009-2.984,1.045-5.891,2.961-8.192c13.037-15.806,30.319-23.809,51.351-23.809
			c52.496,0,111.272,52.185,113.748,54.403c3.63,3.26,5.116,8.274,3.842,12.977c-1.247,4.699-5.052,8.293-9.828,9.283
			C302.901,782.719,278.266,785.652,257.372,785.652z M195.369,736.273c3.062,7.615,15.09,23.549,62.004,23.549
			c11.854,0,25.138-1.055,39.707-3.15c-19.584-13.697-48.856-30.57-74.279-30.57C211.761,726.102,202.721,729.443,195.369,736.273z"
			/>
		<g opacity="0.3">
			<path fill="#1D1D1B" d="M336.548,754.683c-0.486-0.436-3.182-2.824-7.527-6.322l0.192,1.334c0,0,15.879,29.293-63.452,35.673
				c19.033-0.651,40.688-3.387,64.8-8.425c4.777-0.99,8.582-4.584,9.828-9.283C341.663,762.957,340.178,757.943,336.548,754.683z"/>
		</g>
		<path opacity="0.3" fill="#1D1D1B" d="M195.369,736.273c0,0-2.237-9.231,4.217-14.586c0,0-0.403,9.535,1.485,10.223
			C201.071,731.909,196.396,734.481,195.369,736.273z"/>
		<g opacity="0.5">
			<path fill="#FFFFFF" d="M269.08,711.259c-14.926-6.422-30.859-10.978-46.28-10.978c-21.032,0-38.314,8.003-51.351,23.809
				c-1.916,2.301-2.952,5.208-2.961,8.192c0,0.284,0.037,1.096,0.138,2.131C171.88,725.753,192.93,695.16,269.08,711.259z"/>
		</g>
	</g>
</g>
</svg>
